#!OML:ASF H:\Dans Jumps\Project 1\Capture day 1\Session 1\subject.ASF
:FULLY-SPECIFIED
:DEGREES
487
root 0.627505 17.7492 6.90703 7.87126 -1.0333 -1.29769
lowerback -0.772971 0.17747 -0.434081
upperback 2.97369 0.199599 1.58906
thorax 3.48263 0.0624893 1.88625
lowerneck -13.9449 -0.0709291 -1.50867
upperneck 31.4051 0.123008 0.594107
head 12.7608 -0.0468661 0.509912
rclavicle 9.98893e-015 5.96354e-015
rhumerus -24.2412 -13.8842 -81.3344
rradius 25.5451
rwrist 31.4003
rhand -20.2432 -25.4575
rfingers 7.12502
rthumb 6.10498 -55.3495
lclavicle 9.98893e-015 5.96354e-015
lhumerus -21.9783 3.71067 86.3896
lradius 18.7906
lwrist 3.01399
lhand -25.9047 -5.84441
lfingers 7.12502
lthumb 0.637787 24.1344
rfemur -14.055 -2.38484 19.6159
rtibia 20.213
rfoot -12.4084 0.330507
rtoes 13.1877
lfemur -13.7847 6.89309 -18.1315
ltibia 17.4914
lfoot -9.10291 4.151
ltoes -0.650442
488
root 0.627176 17.749 6.90792 7.85566 -1.01915 -1.30215
lowerback -0.795154 0.176452 -0.434294
upperback 2.97482 0.198017 1.59346
thorax 3.4964 0.0615351 1.89099
lowerneck -13.9327 -0.0770191 -1.52059
upperneck 31.2574 0.11422 0.603596
head 12.697 -0.0501305 0.513605
rclavicle -2.78299e-015 -2.32578e-014
rhumerus -24.3416 -14.0416 -81.2465
rradius 25.4437
rwrist 31.5367
rhand -20.2185 -25.4643
rfingers 7.12502
rthumb 6.12883 -55.3556
lclavicle -2.78299e-015 -2.32578e-014
lhumerus -22.0666 3.90407 86.3141
lradius 18.604
lwrist 2.80337
lhand -25.8856 -5.7965
lfingers 7.12502
lthumb 0.656198 24.1822
rfemur -14.0184 -2.38527 19.62
rtibia 20.1878
rfoot -12.4112 0.32736
rtoes 13.2269
lfemur -13.7617 6.88867 -18.1212
ltibia 17.4861
lfoot -9.11549 4.14393
ltoes -0.625349
489
root 0.626851 17.7488 6.90885 7.83842 -1.008 -1.3086
lowerback -0.815471 0.175811 -0.431857
upperback 2.97782 0.196854 1.59774
thorax 3.51105 0.0608496 1.89412
lowerneck -13.9251 -0.0846545 -1.53113
upperneck 31.112 0.103582 0.610903
head 12.6355 -0.054357 0.515959
rclavicle -1.2921e-015 -5.56597e-015
rhumerus -24.4442 -14.1962 -81.1582
rradius 25.3442
rwrist 31.6737
rhand -20.195 -25.4777
rfingers 7.12502
rthumb 6.15159 -55.3684
lclavicle -1.2921e-015 -5.56597e-015
lhumerus -22.1441 4.10262 86.2351
lradius 18.4136
lwrist 2.59804
lhand -25.8491 -5.71692
lfingers 7.12502
lthumb 0.691509 24.2617
rfemur -13.9813 -2.38734 19.6263
rtibia 20.1648
rfoot -12.4152 0.327533
rtoes 13.2666
lfemur -13.735 6.88655 -18.1088
ltibia 17.4783
lfoot -9.12665 4.13666
ltoes -0.604718
490
root 0.626549 17.7488 6.90957 7.82476 -0.994584 -1.31149
lowerback -0.838979 0.174787 -0.432967
upperback 2.97926 0.195324 1.60061
thorax 3.52589 0.0599102 1.8978
lowerneck -13.9092 -0.0927435 -1.53014
upperneck 30.9634 0.0925591 0.606924
head 12.5711 -0.0588657 0.511907
rclavicle 1.54058e-015 -3.18055e-015
rhumerus -24.5485 -14.3449 -81.0706
rradius 25.2363
rwrist 31.7976
rhand -20.1799 -25.4984
rfingers 7.12502
rthumb 6.16618 -55.3886
lclavicle 1.54058e-015 -3.18055e-015
lhumerus -22.2189 4.32074 86.1493
lradius 18.219
lwrist 2.37671
lhand -25.797 -5.64591
lfingers 7.12502
lthumb 0.741783 24.3325
rfemur -13.9491 -2.39469 19.6292
rtibia 20.1433
rfoot -12.4194 0.328722
rtoes 13.3025
lfemur -13.7117 6.88325 -18.1012
ltibia 17.4672
lfoot -9.13495 4.12727
ltoes -0.592201
491
root 0.626232 17.7487 6.91025 7.81091 -0.982825 -1.31378
lowerback -0.860776 0.173657 -0.435061
upperback 2.98048 0.193688 1.60343
thorax 3.53953 0.0588993 1.90196
lowerneck -13.8945 -0.100162 -1.52585
upperneck 30.8182 0.0832663 0.597779
head 12.5086 -0.0629301 0.505602
rclavicle -4.47266e-016 -1.19271e-015
rhumerus -24.6555 -14.4836 -80.9836
rradius 25.1291
rwrist 31.9121
rhand -20.16 -25.5207
rfingers 7.12502
rthumb 6.18531 -55.4104
lclavicle -4.47266e-016 -1.19271e-015
lhumerus -22.2959 4.55525 86.06
lradius 18.0318
lwrist 2.14244
lhand -25.7501 -5.59299
lfingers 7.12502
lthumb 0.787087 24.3853
rfemur -13.9177 -2.40319 19.6315
rtibia 20.1226
rfoot -12.4235 0.332642
rtoes 13.3491
lfemur -13.6872 6.88145 -18.0947
ltibia 17.4546
lfoot -9.14016 4.11857
ltoes -0.588777
492
root 0.625969 17.7488 6.9109 7.79661 -0.970704 -1.31469
lowerback -0.880129 0.171848 -0.437017
upperback 2.98115 0.191199 1.60497
thorax 3.55126 0.0575021 1.90467
lowerneck -13.8836 -0.106503 -1.52275
upperneck 30.6808 0.0758109 0.589037
head 12.4503 -0.0663179 0.499995
rclavicle -4.27387e-015 -7.95139e-015
rhumerus -24.765 -14.6181 -80.8971
rradius 25.0231
rwrist 32.026
rhand -20.1403 -25.5354
rfingers 7.12502
rthumb 6.20432 -55.4246
lclavicle -4.27387e-015 -7.95139e-015
lhumerus -22.3787 4.80457 85.9664
lradius 17.8578
lwrist 1.89611
lhand -25.7146 -5.54669
lfingers 7.12502
lthumb 0.821419 24.4315
rfemur -13.8867 -2.42183 19.6329
rtibia 20.1035
rfoot -12.4275 0.343202
rtoes 13.3806
lfemur -13.6611 6.87971 -18.09
ltibia 17.4404
lfoot -9.14447 4.10811
ltoes -0.576587
493
root 0.625736 17.7488 6.91148 7.78256 -0.95905 -1.31499
lowerback -0.899426 0.169233 -0.438792
upperback 2.98293 0.187637 1.6058
thorax 3.56414 0.0555725 1.9065
lowerneck -13.8788 -0.110799 -1.52768
upperneck 30.5515 0.0716618 0.586595
head 12.3966 -0.0683991 0.498728
rclavicle -5.96354e-016 2.18663e-015
rhumerus -24.8753 -14.7445 -80.8122
rradius 24.9216
rwrist 32.1429
rhand -20.1425 -25.529
rfingers 7.12502
rthumb 6.20221 -55.4182
lclavicle -5.96354e-016 2.18663e-015
lhumerus -22.4624 5.06152 85.8706
lradius 17.6922
lwrist 1.63721
lhand -25.7023 -5.5391
lfingers 7.12502
lthumb 0.833254 24.439
rfemur -13.8575 -2.44618 19.6338
rtibia 20.0867
rfoot -12.432 0.35915
rtoes 13.4103
lfemur -13.6356 6.88056 -18.0864
ltibia 17.4265
lfoot -9.14741 4.09587
ltoes -0.57189
494
root 0.62553 17.7489 6.91186 7.77045 -0.948306 -1.31286
lowerback -0.916716 0.165452 -0.442744
upperback 2.98354 0.182637 1.60551
thorax 3.57474 0.0529025 1.90832
lowerneck -13.8763 -0.113233 -1.53044
upperneck 30.4282 0.0704894 0.581435
head 12.3461 -0.0693 0.49652
rclavicle 1.49089e-015 3.77691e-015
rhumerus -24.9868 -14.8656 -80.7278
rradius 24.8214
rwrist 32.2631
rhand -20.1412 -25.5149
rfingers 7.12502
rthumb 6.20349 -55.4041
lclavicle 1.49089e-015 3.77691e-015
lhumerus -22.5489 5.31209 85.776
lradius 17.5364
lwrist 1.38491
lhand -25.7026 -5.54535
lfingers 7.12502
lthumb 0.833029 24.4328
rfemur -13.8333 -2.47664 19.6326
rtibia 20.0728
rfoot -12.4353 0.380132
rtoes 13.4337
lfemur -13.6141 6.88345 -18.0862
ltibia 17.4139
lfoot -9.15006 4.08118
ltoes -0.560042
495
root 0.625348 17.7489 6.91206 7.75911 -0.939085 -1.31163
lowerback -0.933031 0.160674 -0.446393
upperback 2.98484 0.176272 1.60592
thorax 3.58554 0.0495432 1.91064
lowerneck -13.8783 -0.115247 -1.53916
upperneck 30.3099 0.0706326 0.579425
head 12.2986 -0.0699245 0.496768
rclavicle -2.5345e-015 -9.54166e-015
rhumerus -25.0973 -14.9836 -80.6422
rradius 24.7227
rwrist 32.3934
rhand -20.1348 -25.5002
rfingers 7.12502
rthumb 6.20967 -55.3892
lclavicle -2.5345e-015 -9.54166e-015
lhumerus -22.63 5.54866 85.6853
lradius 17.382
lwrist 1.14198
lhand -25.7074 -5.53749
lfingers 7.12502
lthumb 0.828331 24.4407
rfemur -13.8137 -2.5103 19.6327
rtibia 20.0635
rfoot -12.4396 0.403952
rtoes 13.4398
lfemur -13.5949 6.88931 -18.0853
ltibia 17.4031
lfoot -9.15323 4.06482
ltoes -0.551953
496
root 0.625176 17.749 6.91203 7.75073 -0.933235 -1.31091
lowerback -0.948812 0.15486 -0.450677
upperback 2.98487 0.168544 1.60672
thorax 3.59479 0.0454967 1.91365
lowerneck -13.8825 -0.117049 -1.55644
upperneck 30.1981 0.0712007 0.584528
head 12.2543 -0.0704596 0.501282
rclavicle -5.01931e-015 -1.45113e-014
rhumerus -25.2079 -15.0929 -80.5587
rradius 24.6273
rwrist 32.5209
rhand -20.1088 -25.5037
rfingers 7.12502
rthumb 6.23474 -55.392
lclavicle -5.01931e-015 -1.45113e-014
lhumerus -22.7049 5.7751 85.5974
lradius 17.2267
lwrist 0.90752
lhand -25.6999 -5.50997
lfingers 7.12502
lthumb 0.83555 24.4681
rfemur -13.8012 -2.54387 19.6338
rtibia 20.0583
rfoot -12.4455 0.428887
rtoes 13.4334
lfemur -13.5815 6.89888 -18.0847
ltibia 17.3955
lfoot -9.15811 4.04843
ltoes -0.546154
497
root 0.625051 17.749 6.9118 7.74413 -0.930144 -1.30891
lowerback -0.964748 0.149039 -0.455709
upperback 2.9854 0.160847 1.60678
thorax 3.60463 0.0414487 1.91632
lowerneck -13.8891 -0.118153 -1.56674
upperneck 30.0894 0.0731917 0.582253
head 12.2119 -0.070528 0.502014
rclavicle -1.14301e-015 -4.17448e-015
rhumerus -25.3195 -15.2017 -80.4746
rradius 24.5365
rwrist 32.6542
rhand -20.0785 -25.5051
rfingers 7.12502
rthumb 6.26407 -55.3925
lclavicle -1.14301e-015 -4.17448e-015
lhumerus -22.773 5.98169 85.5147
lradius 17.0727
lwrist 0.684891
lhand -25.6829 -5.45987
lfingers 7.12502
lthumb 0.852029 24.5182
rfemur -13.7941 -2.5741 19.6331
rtibia 20.0571
rfoot -12.4512 0.453242
rtoes 13.4315
lfemur -13.5726 6.90948 -18.086
ltibia 17.3915
lfoot -9.16397 4.03377
ltoes -0.539288
